<?xml version="1.0" encoding="UTF-8" standalone="no"?>
<svg width="68px" height="55px" viewBox="0 0 68 55" version="1.1" xmlns="http://www.w3.org/2000/svg" xmlns:xlink="http://www.w3.org/1999/xlink" xmlns:sketch="http://www.bohemiancoding.com/sketch/ns">
    <!-- Generator: Sketch 3.3.1 (12002) - http://www.bohemiancoding.com/sketch -->
    <title>controller</title>
    <desc>Created with Sketch.</desc>
    <defs></defs>
    <g id="Symbols" stroke="none" stroke-width="1" fill="none" fill-rule="evenodd" sketch:type="MSPage">
        <g id="GUI" sketch:type="MSArtboardGroup" transform="translate(-241.000000, -1144.000000)" fill="#000000">
            <path d="M259.026355,1191.8447 C250.241956,1191.8447 243.36294,1184.67046 243.36294,1175.50635 C243.36294,1166.23908 250.3923,1158.69216 259.026355,1158.69216 L298.075968,1158.69216 C306.808207,1158.69216 313.644267,1165.9396 313.644267,1175.19023 C313.644267,1184.4209 306.740705,1191.6517 297.931761,1191.6517 C292.34141,1191.6517 288.156317,1187.59872 286.241729,1185.31269 L270.67343,1185.31269 C268.458154,1187.99138 264.343631,1191.8447 259.026355,1191.8447 L259.026355,1191.8447 Z M256.722099,1175.32999 L256.722099,1178.65755 C256.722099,1179.57596 257.409387,1180.32134 258.256224,1180.32134 C259.103061,1180.32134 259.790349,1179.57596 259.790349,1178.65755 L259.790349,1175.32999 L262.858598,1175.32999 C263.705435,1175.32999 264.392723,1174.58461 264.392723,1173.66621 C264.392723,1172.75113 263.702367,1172.00242 262.858598,1172.00242 L259.790349,1172.00242 L259.790349,1168.67486 C259.790349,1167.75978 259.099993,1167.01107 258.256224,1167.01107 C257.409387,1167.01107 256.722099,1167.75978 256.722099,1168.67486 L256.722099,1172.00242 L253.653849,1172.00242 C252.807012,1172.00242 252.119725,1172.75113 252.119725,1173.66621 C252.119725,1174.58461 252.807012,1175.32999 253.653849,1175.32999 L256.722099,1175.32999 L256.722099,1175.32999 Z M259.026355,1162.01973 C252.076769,1162.01973 246.43119,1168.06924 246.43119,1175.50635 C246.43119,1182.92349 251.849719,1188.51713 259.026355,1188.51713 C263.674753,1188.51713 267.405744,1184.361 268.801798,1182.5741 L269.258967,1181.98512 L287.646988,1181.98512 L288.101089,1182.5741 C289.44805,1184.30776 293.099267,1188.32746 297.925624,1188.32746 C305.019417,1188.32746 310.569881,1182.55746 310.569881,1175.19356 C310.569881,1167.80969 305.077714,1162.02305 298.069832,1162.02305 L259.026355,1162.01973 L259.026355,1162.01973 Z M275.131597,1175.32999 L272.063348,1175.32999 C271.216511,1175.32999 270.529223,1174.58461 270.529223,1173.66621 C270.529223,1172.75113 271.216511,1172.00242 272.063348,1172.00242 L275.131597,1172.00242 C275.975366,1172.00242 276.665722,1172.75113 276.665722,1173.66621 C276.665722,1174.58461 275.978434,1175.32999 275.131597,1175.32999 Z M284.336346,1175.32999 L281.268097,1175.32999 C280.42126,1175.32999 279.733972,1174.58461 279.733972,1173.66621 C279.733972,1172.75113 280.42126,1172.00242 281.268097,1172.00242 L284.336346,1172.00242 C285.180115,1172.00242 285.870471,1172.75113 285.870471,1173.66621 C285.870471,1174.58461 285.183183,1175.32999 284.336346,1175.32999 Z M305.814094,1168.67486 C305.814094,1170.51251 304.440285,1172.00242 302.745844,1172.00242 C301.051403,1172.00242 299.677595,1170.51251 299.677595,1168.67486 C299.677595,1166.83721 301.051403,1165.34729 302.745844,1165.34729 C304.440285,1165.34729 305.814094,1166.83721 305.814094,1168.67486 Z M296.609345,1178.65755 C296.609345,1180.4952 295.235536,1181.98512 293.541095,1181.98512 C291.846654,1181.98512 290.472846,1180.4952 290.472846,1178.65755 C290.472846,1176.81991 291.846654,1175.32999 293.541095,1175.32999 C295.235536,1175.32999 296.609345,1176.81991 296.609345,1178.65755 Z M275.051823,1158.69216 C275.051823,1153.77069 276.193212,1152.00708 277.199597,1150.45311 C278.104731,1149.05553 278.887135,1147.84762 278.887135,1143.50848 C278.887135,1142.59007 279.574423,1141.8447 280.42126,1141.8447 C281.265028,1141.8447 281.955384,1142.59007 281.955384,1143.50848 C281.955384,1148.89914 280.758767,1150.73928 279.712494,1152.36646 C278.862589,1153.68417 278.120072,1154.81887 278.120072,1158.68883 C275.594685,1158.68883 276.704855,1158.68883 275.051823,1158.69216 Z" id="controller" sketch:type="MSShapeGroup" transform="translate(278.503604, 1166.844696) rotate(25.000000) translate(-278.503604, -1166.844696) "></path>
        </g>
    </g>
</svg>