<?xml version="1.0" encoding="UTF-8" standalone="no"?>
<svg width="50px" height="57px" viewBox="0 0 50 57" version="1.1" xmlns="http://www.w3.org/2000/svg" xmlns:xlink="http://www.w3.org/1999/xlink" xmlns:sketch="http://www.bohemiancoding.com/sketch/ns">
    <!-- Generator: Sketch 3.3.1 (12002) - http://www.bohemiancoding.com/sketch -->
    <title>cup</title>
    <desc>Created with Sketch.</desc>
    <defs></defs>
    <g id="Symbols" stroke="none" stroke-width="1" fill="none" fill-rule="evenodd" sketch:type="MSPage">
        <g id="GUI" sketch:type="MSArtboardGroup" transform="translate(-433.000000, -1137.000000)" fill="#000000">
            <path d="M475.158225,1170.9697 C478.005385,1170.76761 480.489099,1169.63845 482.381304,1167.65928 C486.695781,1163.14157 486.675994,1155.74157 486.630173,1154.34365 C486.727022,1151.27595 484.606753,1148.25511 481.63671,1147.26865 L479.415426,1146.53011 C479.420633,1146.0072 479.436254,1145.50303 479.436254,1144.9697 L479.436254,1141.8447 L476.312085,1141.8447 L461.732631,1141.8447 L447.153177,1141.8447 L444.029008,1141.8447 L444.029008,1144.9697 C444.029008,1145.50303 444.044629,1146.0072 444.050877,1146.52907 L441.829593,1147.26761 C438.85955,1148.25407 436.739281,1151.2749 436.83613,1154.34261 C436.790309,1155.74053 436.771564,1163.14053 441.085,1167.65824 C442.976163,1169.63845 445.459877,1170.76657 448.305995,1170.96865 C450.322125,1175.17386 453.038069,1178.00199 456.469448,1179.38949 L456.471531,1179.7072 C456.434041,1179.7697 456.394468,1179.83324 456.353854,1179.89678 L451.101085,1182.7874 C449.387999,1183.41865 448.194566,1185.07595 448.194566,1186.92386 L448.194566,1187.68011 C448.194566,1189.97595 450.059695,1191.8447 452.351793,1191.8447 L471.113468,1191.8447 C473.405567,1191.8447 475.270695,1189.97595 475.270695,1187.68011 L475.270695,1186.92386 C475.270695,1185.08324 474.05227,1183.40511 472.35168,1182.7874 L467.124946,1179.93011 C467.091622,1179.87282 467.058297,1179.8124 467.024973,1179.75095 L467.027056,1179.37803 C470.441772,1177.98428 473.147302,1175.16136 475.158225,1170.9697 L475.158225,1170.9697 Z M480.650514,1150.23324 C482.289661,1150.77803 483.603895,1152.6124 483.50288,1154.33532 C483.50288,1154.33532 484.015244,1165.67699 476.521404,1167.60407 C478.109523,1162.93324 479.047815,1156.99053 479.332115,1149.79574 L480.650514,1150.23324 L480.650514,1150.23324 Z M439.96134,1154.33532 C439.860325,1152.6124 441.1756,1150.77803 442.813706,1150.23324 L444.132105,1149.7947 C444.416405,1156.99053 445.353655,1162.93324 446.941775,1167.60303 C439.448976,1165.67699 439.96134,1154.33532 439.96134,1154.33532 L439.96134,1154.33532 Z M464.923449,1182.2874 L471.131172,1185.68115 C471.692481,1185.79365 472.146527,1186.35199 472.146527,1186.92386 L472.146527,1187.68011 C472.146527,1188.25407 471.672694,1188.7197 471.113468,1188.7197 L452.351793,1188.7197 C451.781112,1188.7197 451.318735,1188.25095 451.318735,1187.68011 L451.318735,1186.92386 C451.318735,1186.3499 451.770698,1185.80199 452.338255,1185.6749 L458.525151,1182.2697 C458.858396,1181.80511 459.355138,1181.02282 459.601948,1180.49053 L459.576954,1177.06136 C448.019613,1174.83011 447.153177,1154.51345 447.153177,1144.9697 L461.732631,1144.9697 L476.312085,1144.9697 C476.312085,1154.50615 475.44669,1174.7999 463.914342,1177.05615 L463.896638,1180.49053 C464.139282,1181.00824 464.578749,1181.82178 464.923449,1182.2874 L464.923449,1182.2874 Z" id="cup" sketch:type="MSShapeGroup" transform="translate(461.733165, 1166.844696) rotate(-20.000000) translate(-461.733165, -1166.844696) "></path>
        </g>
    </g>
</svg>