<?xml version="1.0" encoding="UTF-8" standalone="no"?>
<svg width="43px" height="51px" viewBox="0 0 43 51" version="1.1" xmlns="http://www.w3.org/2000/svg" xmlns:xlink="http://www.w3.org/1999/xlink" xmlns:sketch="http://www.bohemiancoding.com/sketch/ns">
    <!-- Generator: Sketch 3.3.1 (12002) - http://www.bohemiancoding.com/sketch -->
    <title>flag</title>
    <desc>Created with Sketch.</desc>
    <defs></defs>
    <g id="Symbols" stroke="none" stroke-width="1" fill="none" fill-rule="evenodd" sketch:type="MSPage">
        <g id="GUI" sketch:type="MSArtboardGroup" transform="translate(-162.000000, -1141.000000)" fill="#000000">
            <path d="M202.510485,1162.76434 L187.008519,1160.03055 L187.008519,1155.13042 C187.008519,1155.11009 187.00359,1155.09161 187.002358,1155.07127 C187.013448,1154.18219 186.38499,1153.38984 185.48112,1153.22965 L171.637175,1150.78852 C172.547207,1149.83782 173.109738,1148.55195 173.109738,1147.13545 C173.109738,1144.21805 170.735769,1141.8447 167.818368,1141.8447 C164.900967,1141.8447 162.526997,1144.21805 162.526997,1147.13545 C162.526997,1149.40221 163.962593,1151.33503 165.969962,1152.08733 L165.969962,1189.99629 C165.969962,1191.01723 166.797431,1191.8447 167.818368,1191.8447 C168.839304,1191.8447 169.666774,1191.01723 169.666774,1189.99629 L169.666774,1167.23748 L183.311707,1164.83147 L183.311707,1167.35763 C183.311707,1167.55664 183.35114,1167.74518 183.409673,1167.92447 C183.41337,1168.00395 183.41337,1168.0822 183.426925,1168.1623 C183.584655,1169.05939 184.364066,1169.69032 185.24514,1169.69032 C185.351115,1169.69032 185.459555,1169.68046 185.567379,1169.66136 L202.509869,1166.67495 C203.45194,1166.50859 204.092104,1165.65463 204.022481,1164.71995 C204.09272,1163.78528 203.452556,1162.9307 202.510485,1162.76434 L202.510485,1162.76434 Z M170.066646,1154.2666 L183.311707,1156.60237 L183.311707,1161.07736 L170.066646,1163.41313 L170.066646,1154.2666 L170.066646,1154.2666 Z M187.008519,1163.78528 L192.307283,1164.71934 L187.008519,1165.6534 L187.008519,1163.78528 L187.008519,1163.78528 Z M167.818368,1145.54274 C168.697593,1145.54274 169.412926,1146.25807 169.412926,1147.13668 C169.412926,1148.01591 168.697593,1148.73124 167.818368,1148.73124 C166.939143,1148.73124 166.223809,1148.01591 166.223809,1147.13668 C166.223809,1146.25746 166.939143,1145.54274 167.818368,1145.54274 L167.818368,1145.54274 Z" id="flag" sketch:type="MSShapeGroup" transform="translate(183.277369, 1166.844696) scale(-1, 1) translate(-183.277369, -1166.844696) "></path>
        </g>
    </g>
</svg>