<?xml version="1.0" encoding="utf-8"?>
<!-- Generator: Adobe Illustrator 17.1.0, SVG Export Plug-In . SVG Version: 6.00 Build 0)  -->
<!DOCTYPE svg PUBLIC "-//W3C//DTD SVG 1.1//EN" "http://www.w3.org/Graphics/SVG/1.1/DTD/svg11.dtd">
<svg version="1.1" id="Calque_1" xmlns:sketch="http://www.bohemiancoding.com/sketch/ns"
	 xmlns="http://www.w3.org/2000/svg" xmlns:xlink="http://www.w3.org/1999/xlink" x="0px" y="0px" viewBox="0 0 52 51"
	 enable-background="new 0 0 52 51" xml:space="preserve">
<title>referee</title>
<desc>Created with Sketch.</desc>
<g id="Symbols" sketch:type="MSPage">
	<g id="GUI" transform="translate(-525.000000, -1141.000000)" sketch:type="MSArtboardGroup">
		<path id="referee" sketch:type="MSShapeGroup" fill="#D0021B" d="M559.1,1170.7h-5c-3.6,0-6.9,1.1-9.6,2.9c-0.1,0-0.1,0.1-0.1,0.1
			c-4.6,3.1-7.6,8.4-7.6,14.3c0,0,0,0.1,0,0.1v0.1c0,0.6,0.5,1.3,1.1,1.3h0c0.6,0,1.1-0.6,1.1-1.2c0-0.1,0-0.3,0-0.3
			c0,0,0-0.1,0-0.1h0c0-4.4,1.9-8.4,5-11.1v12.8c0,0.6,0.5,1.1,1.1,1.1s1.1-0.5,1.1-1.1v-14.4c1.5-0.9,3.2-1.6,5-2v17.5
			c0,0.6,0.5,1.1,1.1,1.1s1.1-0.5,1.1-1.1V1173c0.3,0,0.5,0,0.8,0h3.6v17.8c0,0.6,0.5,1.1,1.1,1.1s1.1-0.5,1.1-1.1v-9.7h5v8.6
			c0,0.6,0.5,1.1,1.1,1.1s1.1-0.5,1.1-1.1v-14.4c4.3,2.7,7.2,7.4,7.2,12.9c0,0.6,0.5,1.1,1.1,1.1s1.1-0.5,1.1-1.1
			C576.4,1178.5,568.7,1170.7,559.1,1170.7L559.1,1170.7z M564.9,1174.6v4.2h-5v-5.8c1.8,0.1,3.5,0.5,5.1,1.2
			C564.9,1174.3,564.9,1174.5,564.9,1174.6L564.9,1174.6z M556,1167.4c6.4,0,11.6-5.2,11.6-11.7v-2.2c0-1.2-0.2-2.3-0.5-3.4
			c0-0.1-0.1-0.3-0.1-0.4c-1.6-4.6-5.9-7.9-10.9-7.9c-6.4,0-11.6,5.2-11.6,11.7v2.2C544.5,1162.2,549.7,1167.4,556,1167.4
			L556,1167.4z M556,1144.1c3.6,0,6.7,2.1,8.3,5.1c-7.3-0.3-12.1-2.3-12.9-3.9C552.8,1144.5,554.4,1144.1,556,1144.1L556,1144.1z
			 M546.7,1153.5c0-2.8,1.2-5.2,3.1-7c1.6,2.5,6.9,4.6,15.4,4.8c0.2,0.7,0.3,1.4,0.3,2.2v2.2c0,5.2-4.2,9.4-9.4,9.4
			s-9.4-4.2-9.4-9.4V1153.5L546.7,1153.5z M541.7,1168.4v-6.4c0-1.6-1.3-2.9-2.9-2.9h-1c-0.1-2.2-1.8-3.9-4-3.9h-4.1
			c-2.2,0-4,1.8-4,4v6.4c0,2.2,1.8,4,4,4h2.4c0.5,1,1.5,1.7,2.6,1.7h4.1C540.4,1171.3,541.7,1170,541.7,1168.4L541.7,1168.4z
			 M535.6,1165.6c0,1-0.8,1.8-1.8,1.8h-4.1c-1,0-1.8-0.8-1.8-1.8v-6.4c0-1,0.8-1.8,1.8-1.8h4.1c1,0,1.8,0.8,1.8,1.8V1165.6
			L535.6,1165.6z"/>
	</g>
</g>
</svg>
