<?xml version="1.0" encoding="UTF-8" standalone="no"?>
<svg width="65px" height="51px" viewBox="0 0 65 51" version="1.1" xmlns="http://www.w3.org/2000/svg" xmlns:xlink="http://www.w3.org/1999/xlink" xmlns:sketch="http://www.bohemiancoding.com/sketch/ns">
    <!-- Generator: Sketch 3.3.1 (12002) - http://www.bohemiancoding.com/sketch -->
    <title>strategy</title>
    <desc>Created with Sketch.</desc>
    <defs></defs>
    <g id="Symbols" stroke="none" stroke-width="1" fill="none" fill-rule="evenodd" sketch:type="MSPage">
        <g id="GUI" sketch:type="MSArtboardGroup" transform="translate(-54.000000, -1141.000000)" fill="#000000">
            <path d="M67.6964981,1172.34569 C68.4258006,1173.07436 68.4258006,1174.25775 67.6964981,1174.98642 C67.3346735,1175.34722 66.854832,1175.53433 66.3749905,1175.53433 C65.895149,1175.53433 65.4153075,1175.34722 65.053483,1174.98642 L61.5567881,1171.49275 L58.0600933,1174.98642 C57.6982688,1175.34722 57.2184273,1175.53433 56.7385858,1175.53433 C56.2587442,1175.53433 55.7789027,1175.34722 55.4170782,1174.98642 C54.6877757,1174.25775 54.6877757,1173.07436 55.4170782,1172.34569 L58.913773,1168.85203 L55.4170782,1165.35836 C54.6877757,1164.62969 54.6877757,1163.44631 55.4170782,1162.71764 C56.1463808,1161.98261 57.3307907,1161.98261 58.0600933,1162.71764 L61.5567881,1166.2113 L65.053483,1162.71764 C65.7827855,1161.98261 66.9671955,1161.98261 67.6964981,1162.71764 C68.4258006,1163.44631 68.4258006,1164.62969 67.6964981,1165.35836 L64.1998032,1168.85203 L67.6964981,1172.34569 Z M85.5658242,1157.0888 C86.2951267,1157.81747 86.2951267,1159.00085 85.5658242,1159.72952 C85.1983461,1160.09033 84.7185046,1160.27744 84.2443166,1160.27744 C83.7644751,1160.27744 83.2846336,1160.09033 82.9171556,1159.72952 L79.4268209,1156.23586 L75.9301261,1159.72952 C75.5626481,1160.09033 75.0820999,1160.27744 74.6086186,1160.27744 C74.128777,1160.27744 73.6489355,1160.09033 73.287111,1159.72952 C72.5514483,1159.00085 72.5514483,1157.81747 73.287111,1157.0888 L76.7838058,1153.59513 L73.287111,1150.10147 C72.5514483,1149.37279 72.5514483,1148.18941 73.287111,1147.46074 C74.0164136,1146.72571 75.2008235,1146.72571 75.9301261,1147.46074 L79.4268209,1150.95441 L82.9171556,1147.46074 C83.6528183,1146.72571 84.8372283,1146.72571 85.5658242,1147.46074 C86.2951267,1148.18941 86.2951267,1149.37279 85.5658242,1150.10147 L82.0691293,1153.59513 L85.5658242,1157.0888 Z M117.925799,1180.0737 C118.655101,1180.80237 118.655101,1181.98575 117.925799,1182.71442 C117.558321,1183.08158 117.078479,1183.26234 116.604291,1183.26234 C116.124449,1183.26234 115.644608,1183.08158 115.282783,1182.71442 L111.786089,1179.22076 L108.289394,1182.71442 C107.921916,1183.08158 107.442074,1183.26234 106.967886,1183.26234 C106.488045,1183.26234 106.008203,1183.08158 105.646379,1182.71442 C104.910716,1181.98575 104.910716,1180.80237 105.646379,1180.0737 L109.143074,1176.58003 L105.646379,1173.08637 C104.910716,1172.3577 104.910716,1171.17431 105.646379,1170.44564 C106.375681,1169.71697 107.560091,1169.71697 108.289394,1170.44564 L111.786089,1173.93931 L115.282783,1170.44564 C116.012086,1169.71697 117.196496,1169.71697 117.925799,1170.44564 C118.655101,1171.17431 118.655101,1172.3577 117.925799,1173.08637 L114.429104,1176.58003 L117.925799,1180.0737 Z M107.41734,1144.69645 L96.1046702,1141.90039 C95.1011725,1141.65114 94.0913146,1142.2619 93.8425602,1143.26453 L91.0440736,1154.56104 C90.7946126,1155.56367 91.4058982,1156.57901 92.4086892,1156.82755 C92.5585072,1156.86497 92.7076184,1156.87768 92.8574364,1156.87768 C93.6991024,1156.87768 94.4594993,1156.3107 94.6707992,1155.45776 L96.3845189,1148.53327 L96.8770808,1149.34879 C102.617512,1158.86387 99.5448299,1171.27528 90.0207887,1177.01709 C89.3536747,1177.41532 88.6618266,1177.77683 87.9579648,1178.09457 C87.9021365,1177.98865 87.8392412,1177.8891 87.7713991,1177.78319 C86.4435313,1175.74686 84.4054416,1174.35166 82.024608,1173.85387 C81.4076689,1173.72325 80.7716492,1173.65476 80.1419897,1173.65476 C75.8665241,1173.65476 72.1267284,1176.69371 71.2419544,1180.87863 C70.7430323,1183.2574 71.1981397,1185.6863 72.5323677,1187.72262 C73.8602354,1189.75895 75.9046853,1191.15415 78.2791588,1191.65194 C78.9024581,1191.78256 79.5321175,1191.8447 80.161777,1191.8447 C84.4372426,1191.8447 88.1770383,1188.80574 89.0618123,1184.62083 C89.2674587,1183.62456 89.3112734,1182.62193 89.1925497,1181.64401 C90.1395123,1181.23308 91.0624475,1180.75365 91.9535818,1180.21774 C103.240811,1173.41116 106.887324,1158.70218 100.081207,1147.41838 L99.5886446,1146.60851 L106.519846,1148.32074 C107.516983,1148.56999 108.533201,1147.95923 108.781956,1146.95731 C109.031417,1145.95397 108.420838,1144.94499 107.41734,1144.69645 Z M85.3969256,1183.85403 C84.8796296,1186.32036 82.6797082,1188.10743 80.161777,1188.10743 C79.7879388,1188.10743 79.4133939,1188.07001 79.052276,1187.99517 C77.650206,1187.6965 76.4467154,1186.87392 75.6615845,1185.67853 C74.8828137,1184.47679 74.6086186,1183.05052 74.9075478,1181.64966 C75.4248438,1179.18334 77.6247652,1177.3899 80.1434031,1177.3899 C80.5172413,1177.3899 80.8910796,1177.42732 81.2592643,1177.50852 C82.6556808,1177.80084 83.8584647,1178.62342 84.6435957,1179.8188 C85.4287266,1181.02055 85.6965616,1182.45247 85.3969256,1183.85403 L85.3969256,1183.85403 Z" id="strategy" sketch:type="MSShapeGroup"></path>
        </g>
    </g>
</svg>