<?xml version="1.0" encoding="UTF-8" standalone="no"?>
<svg width="45px" height="51px" viewBox="0 0 45 51" version="1.1" xmlns="http://www.w3.org/2000/svg" xmlns:xlink="http://www.w3.org/1999/xlink" xmlns:sketch="http://www.bohemiancoding.com/sketch/ns">
    <!-- Generator: Sketch 3.3.1 (12002) - http://www.bohemiancoding.com/sketch -->
    <title>whistle</title>
    <desc>Created with Sketch.</desc>
    <defs></defs>
    <g id="Symbols" stroke="none" stroke-width="1" fill="none" fill-rule="evenodd" sketch:type="MSPage">
        <g id="GUI" sketch:type="MSArtboardGroup" transform="translate(-353.000000, -1141.000000)" fill="#000000">
            <path d="M357.804999,1158.87965 L362.591274,1159.98183 C362.698975,1160.00653 362.806675,1160.01849 362.91287,1160.01849 C363.605769,1160.01849 364.230131,1159.50924 364.383021,1158.76329 C364.560011,1157.90338 364.044856,1157.05383 363.231452,1156.86735 L358.445177,1155.76516 C357.636293,1155.57947 356.830421,1156.12299 356.653431,1156.9837 C356.47644,1157.84361 356.991595,1158.69236 357.804999,1158.87965 Z M372.825845,1151.04164 C372.918482,1151.85054 373.567698,1152.44427 374.319343,1152.44427 C374.379595,1152.44427 374.440601,1152.44108 374.502359,1152.43232 C375.328566,1152.32712 375.916777,1151.53256 375.816608,1150.65831 L375.228397,1145.5124 C375.128228,1144.63814 374.377336,1144.01015 373.551882,1144.12172 C372.725676,1144.22692 372.137464,1145.02148 372.237634,1145.89573 L372.825845,1151.04164 Z M366.311841,1153.52494 C366.608582,1153.85806 367.007752,1154.02622 367.409182,1154.02622 C367.779732,1154.02622 368.150282,1153.88277 368.441752,1153.59268 C369.047285,1152.98939 369.075905,1151.98045 368.50577,1151.3397 L360.499773,1142.34612 C359.929638,1141.70537 358.976149,1141.67429 358.370615,1142.27837 C357.765082,1142.88167 357.736462,1143.89061 358.306597,1144.53135 L366.311841,1153.52494 Z M397.443342,1161.02424 L393.705453,1154.22864 C393.502102,1153.85966 393.167703,1153.59188 392.776818,1153.48589 L388.669132,1152.37573 L384.404037,1151.16676 C384.045537,1151.06635 383.662936,1151.10779 383.330043,1151.2863 L373.610628,1156.52545 L373.582762,1156.51988 L373.578243,1156.54299 L361.703309,1162.94329 C360.84547,1163.34177 359.993656,1163.84544 359.169708,1164.44316 C358.674888,1164.80258 358.198897,1165.20265 357.755291,1165.63141 C355.052984,1168.23983 353.502999,1171.95521 353.502999,1175.82281 C353.502999,1183.54685 358.793886,1189.76306 366.421047,1190.94574 L373.940508,1191.83115 C373.995488,1191.83832 374.051222,1191.84151 374.106955,1191.84151 C374.189801,1191.84151 374.268882,1191.83195 374.351729,1191.83035 C374.411228,1191.83832 374.470727,1191.8447 374.529472,1191.8447 C374.631901,1191.8447 374.731317,1191.83115 374.828473,1191.81043 C382.593462,1191.48447 387.959663,1185.96639 387.959663,1178.14592 C387.959663,1176.36553 387.645599,1174.64412 387.025003,1173.01515 L397.169195,1162.99191 C397.683597,1162.48266 397.797323,1161.66658 397.443342,1161.02424 Z M384.18261,1154.40477 L387.90619,1155.45993 L389.025372,1155.76198 L383.800763,1158.63737 L378.403682,1157.51845 L384.18261,1154.40477 L384.18261,1154.40477 Z M377.622664,1162.03955 L372.242906,1160.84014 L374.051222,1159.86547 L379.513827,1160.99794 L377.622664,1162.03955 L377.622664,1162.03955 Z M356.515604,1175.82281 C356.515604,1172.84859 357.707842,1169.99232 359.785786,1167.9864 C360.12847,1167.65566 360.495254,1167.34804 360.874089,1167.07229 C361.552679,1166.58058 362.251603,1166.16776 362.949021,1165.84658 C362.976887,1165.83383 363.004001,1165.81949 363.031114,1165.80514 L367.96576,1163.14572 L373.409537,1164.35868 L370.232745,1166.10719 C369.405785,1166.45625 368.61347,1166.90334 367.871617,1167.43889 C367.410688,1167.776 366.970095,1168.14658 366.564899,1168.53868 C364.061425,1170.95344 362.625919,1174.39467 362.625919,1177.97856 C362.625919,1181.82942 363.979332,1185.20291 366.299037,1187.68382 C360.516343,1186.55215 356.515604,1181.75132 356.515604,1175.82281 L356.515604,1175.82281 Z M384.179598,1171.46508 C383.69005,1171.94963 383.561261,1172.71869 383.864781,1173.35226 C384.583287,1174.84973 384.947812,1176.46196 384.947812,1178.14512 C384.947812,1184.28164 380.789665,1188.44172 374.558092,1188.63617 C369.216744,1187.71968 365.638523,1183.46397 365.638523,1177.97856 C365.638523,1175.28965 366.716283,1172.70753 368.596901,1170.89208 C368.90268,1170.59641 369.23482,1170.31748 369.578257,1170.06723 C370.149146,1169.65362 370.76447,1169.30933 371.407661,1169.04395 C371.458122,1169.02323 371.507077,1168.99932 371.554526,1168.97302 L392.107267,1157.65951 L394.234918,1161.52791 L384.179598,1171.46508 L384.179598,1171.46508 Z" id="whistle" sketch:type="MSShapeGroup" transform="translate(375.575531, 1166.844696) scale(-1, 1) translate(-375.575531, -1166.844696) "></path>
        </g>
    </g>
</svg>