<?xml version="1.0" encoding="UTF-8" standalone="no"?>
<svg width="34px" height="30px" viewBox="0 0 34 30" version="1.1" xmlns="http://www.w3.org/2000/svg" xmlns:xlink="http://www.w3.org/1999/xlink" xmlns:sketch="http://www.bohemiancoding.com/sketch/ns">
    <!-- Generator: Sketch 3.3.1 (12002) - http://www.bohemiancoding.com/sketch -->
    <title>arrowicon-</title>
    <desc>Created with Sketch.</desc>
    <defs></defs>
    <g id="Symbols" stroke="none" stroke-width="1" fill="none" fill-rule="evenodd" sketch:type="MSPage">
        <g id="GUI" sketch:type="MSArtboardGroup" transform="translate(-408.000000, -625.000000)" fill="#000000">
            <path d="M425.035457,625.638717 C424.182159,626.490923 424.182159,627.872634 425.035457,628.72471 L434.041405,637.715152 L410.377735,637.715152 C409.1703,637.715152 408.191692,638.69232 408.191692,639.89727 C408.191692,641.102479 409.1703,642.079388 410.377735,642.079388 L434.051393,642.079388 L424.839969,651.27495 C423.98667,652.127026 423.98667,653.508866 424.839969,654.360943 C425.693787,655.213019 427.077641,655.213019 427.931199,654.360943 L440.463328,641.850312 C440.528058,641.785694 440.586562,641.716932 440.641174,641.646617 C441.176399,641.249456 441.524698,640.614542 441.524698,639.897529 C441.524698,639.20253 441.197933,638.58458 440.690598,638.185089 C440.679571,638.173175 440.669842,638.161003 440.658297,638.149478 L428.126168,625.639106 C427.273259,624.787029 425.888886,624.787029 425.035457,625.638717 L425.035457,625.638717 Z" id="arrow" sketch:type="MSShapeGroup"></path>
        </g>
    </g>
</svg>